<svg xmlns="http://www.w3.org/2000/svg" xmlns:xlink="http://www.w3.org/1999/xlink" width="60" height="60" viewBox="0 0 60 60">
  <defs>
    <filter id="Rectangle" x="0" y="0" width="60" height="60" filterUnits="userSpaceOnUse">
      <feOffset input="SourceAlpha"/>
      <feGaussianBlur stdDeviation="5" result="blur"/>
      <feFlood flood-color="#cbc194" flood-opacity="0.702"/>
      <feComposite operator="in" in2="blur"/>
      <feComposite in="SourceGraphic"/>
    </filter>
  </defs>
  <g id="Types_Rock" data-name="Types/Rock" transform="translate(15 15)">
    <g id="Group">
      <g transform="matrix(1, 0, 0, 1, -15, -15)" filter="url(#Rectangle)">
        <rect id="Rectangle-2" data-name="Rectangle" width="30" height="30" rx="15" transform="translate(15 15)" fill="none"/>
      </g>
      <path id="Path_8" data-name="Path 8" d="M7.575,10.971,4.327,9.907,9.994,6.03a.183.183,0,0,1,.255.049L11.54,8a.182.182,0,0,1-.045.25L7.739,10.946a.182.182,0,0,1-.106.034A.187.187,0,0,1,7.575,10.971Zm-4.6-1.345L.126,8.695A.182.182,0,0,1,0,8.521V5.6a.183.183,0,0,1,.042-.117L4.511.091a.183.183,0,0,1,.14-.066H10.4a.183.183,0,0,1,.181.21l-.69,4.628a.179.179,0,0,1-.076.123L3.132,9.6a.182.182,0,0,1-.1.033A.178.178,0,0,1,2.972,9.626ZM12.4,7.374,10.854,5.266a.184.184,0,0,1-.033-.14L11.676.143A.171.171,0,0,1,11.845,0h.011a.183.183,0,0,1,.175.128l1.931,6.115a.182.182,0,0,1-.062.2l-1.238.968a.182.182,0,0,1-.26-.036Z" transform="translate(8 10)" fill="#fff"/>
    </g>
  </g>
</svg>
